<svg width="200" height="100" viewBox="0 0 200 100" fill="none" xmlns="http://www.w3.org/2000/svg">
<path d="M0 0H200V90L190 100H0V0Z" fill="#FF4655"/>
<rect x="22.25" y="31.25" width="37.5" height="37.5" rx="18.75" fill="#0F1923"/>
<path d="M22.2835 28.125L39.501 44.9828V48.9966C39.9109 49.7993 41.1407 49.7993 41.1407 49.7993C41.1407 49.7993 42.3706 49.7993 42.7805 48.9966L42.7805 44.9828L59.5881 28.125C59.5881 28.125 60.4079 37.758 58.3582 42.1732L55.0787 45.3842V42.1732C55.0787 42.1732 51.9665 44.192 50.9793 46.1869C50.5693 47.7924 50.5693 50.6021 50.5693 50.6021C50.5693 50.6021 48.1277 49.7787 46.8799 50.2007C45.6981 50.6004 45.3589 51.4996 44.8302 52.6089C50.1594 56.2213 53.439 60.6365 53.439 60.6365C55.4115 64.6055 54.6688 71.875 54.6688 71.875L43.6004 61.4392V55.82C42.9847 55.6477 42.5552 55.5871 41.9606 55.82V59.8337C41.3661 60.0666 40.9154 60.0666 40.3209 59.8337V55.82C39.7263 55.5871 39.2968 55.6477 38.6811 55.82V61.4392L27.2028 71.875C27.2028 71.875 26.7857 64.5862 28.8425 60.6365C28.8425 60.6365 32.122 56.2213 37.4513 52.6089C36.9225 51.4996 36.5834 50.6004 35.4016 50.2007C34.1538 49.7787 31.7121 50.6021 31.7121 50.6021C31.7121 50.6021 31.7121 47.7924 31.3022 46.1869C30.3149 44.192 27.2028 42.1732 27.2028 42.1732V45.3842L23.9232 42.1732C21.8735 37.758 22.2835 28.125 22.2835 28.125Z" fill="white"/>
<path d="M75.898 41.112C75.898 41.0253 75.924 40.956 75.976 40.904C76.0453 40.8347 76.1233 40.8 76.21 40.8H82.008C83.256 40.8 84.426 41.034 85.518 41.502C86.61 41.97 87.5633 42.6113 88.378 43.426C89.1927 44.2233 89.8427 45.168 90.328 46.26C90.8307 47.3347 91.0907 48.4873 91.108 49.718C91.1427 51.0007 90.9087 52.2053 90.406 53.332C89.9207 54.4587 89.2533 55.4467 88.404 56.296C87.5547 57.128 86.558 57.7867 85.414 58.272C84.2873 58.7573 83.0827 59 81.8 59H76.21C76.1233 59 76.0453 58.974 75.976 58.922C75.924 58.8527 75.898 58.7747 75.898 58.688V41.112ZM79.226 55.698H82.008C82.8053 55.698 83.5507 55.5507 84.244 55.256C84.9547 54.944 85.57 54.528 86.09 54.008C86.6273 53.4707 87.0433 52.8553 87.338 52.162C87.65 51.4513 87.806 50.6973 87.806 49.9C87.806 49.1027 87.65 48.3573 87.338 47.664C87.0433 46.9533 86.6273 46.338 86.09 45.818C85.57 45.2807 84.9547 44.8647 84.244 44.57C83.5507 44.258 82.8053 44.102 82.008 44.102H79.226V55.698ZM94.2585 40.748H96.9365C97.0231 40.748 97.0925 40.7827 97.1445 40.852C97.2138 40.904 97.2485 40.9733 97.2485 41.06V52.318C97.2485 52.786 97.3265 53.2367 97.4825 53.67C97.6558 54.086 97.8811 54.4673 98.1585 54.814C98.4531 55.1433 98.7998 55.412 99.1985 55.62C99.5971 55.828 100.03 55.958 100.498 56.01C101.036 56.062 101.538 56.0013 102.006 55.828C102.492 55.6547 102.908 55.4033 103.254 55.074C103.618 54.7447 103.904 54.3547 104.112 53.904C104.32 53.436 104.424 52.942 104.424 52.422V41.06C104.424 40.9733 104.459 40.904 104.528 40.852C104.598 40.7827 104.676 40.748 104.762 40.748H107.414C107.501 40.748 107.57 40.7827 107.622 40.852C107.692 40.904 107.726 40.9733 107.726 41.06V52.422C107.726 53.358 107.544 54.242 107.18 55.074C106.834 55.906 106.357 56.634 105.75 57.258C105.144 57.882 104.424 58.3847 103.592 58.766C102.778 59.13 101.902 59.3207 100.966 59.338C99.9958 59.3553 99.0858 59.182 98.2365 58.818C97.3871 58.4367 96.6418 57.9253 96.0005 57.284C95.3591 56.6253 94.8565 55.8713 94.4925 55.022C94.1285 54.1553 93.9465 53.2367 93.9465 52.266V41.06C93.9465 40.9733 93.9725 40.904 94.0245 40.852C94.0938 40.7827 94.1718 40.748 94.2585 40.748ZM109.806 58.636L123.17 41.216C123.396 40.9387 123.682 40.8 124.028 40.8H126.498C126.706 40.8 126.81 40.904 126.81 41.112V58.688C126.81 58.896 126.706 59 126.498 59H124.028C123.682 59 123.396 58.8613 123.17 58.584L118.672 52.708L114.148 58.584C113.923 58.8613 113.637 59 113.29 59H109.988C109.902 59 109.832 58.9653 109.78 58.896C109.728 58.8093 109.737 58.7227 109.806 58.636ZM120.83 49.9L123.508 53.384V46.416L120.83 49.9ZM130.876 40.8H133.554C133.779 40.8 133.892 40.904 133.892 41.112V55.698H141.172C141.276 55.698 141.345 55.7413 141.38 55.828C141.432 55.9147 141.432 55.9927 141.38 56.062L139.43 58.584C139.205 58.8613 138.927 59 138.598 59H130.876C130.789 59 130.711 58.974 130.642 58.922C130.59 58.8527 130.564 58.7747 130.564 58.688V41.112C130.564 41.0253 130.59 40.956 130.642 40.904C130.711 40.8347 130.789 40.8 130.876 40.8ZM143.749 40.8H146.427C146.652 40.8 146.765 40.904 146.765 41.112V58.688C146.765 58.896 146.652 59 146.427 59H143.749C143.662 59 143.584 58.974 143.515 58.922C143.463 58.8527 143.437 58.7747 143.437 58.688V41.112C143.437 41.0253 143.463 40.956 143.515 40.904C143.584 40.8347 143.662 40.8 143.749 40.8ZM149.611 41.06C149.611 40.9733 149.637 40.904 149.689 40.852C149.758 40.7827 149.836 40.748 149.923 40.748H161.207C161.554 40.748 161.84 40.8867 162.065 41.164L163.989 43.686C164.058 43.7727 164.067 43.8593 164.015 43.946C163.98 44.0153 163.911 44.05 163.807 44.05H158.009V58.636C158.009 58.844 157.905 58.948 157.697 58.948H155.019C154.811 58.948 154.707 58.844 154.707 58.636V44.05H149.923C149.836 44.05 149.758 44.024 149.689 43.972C149.637 43.9027 149.611 43.8247 149.611 43.738V41.06ZM164.578 40.748H167.88C168.227 40.748 168.513 40.8867 168.738 41.164L174.068 48.106L179.398 41.164C179.623 40.8867 179.909 40.748 180.256 40.748H183.558C183.662 40.748 183.731 40.7913 183.766 40.878C183.818 40.9647 183.809 41.0427 183.74 41.112L175.732 51.564V58.636C175.732 58.7227 175.697 58.8007 175.628 58.87C175.576 58.922 175.507 58.948 175.42 58.948H172.742C172.517 58.948 172.404 58.844 172.404 58.636V51.564L164.396 41.112C164.327 41.0427 164.318 40.9647 164.37 40.878C164.422 40.7913 164.491 40.748 164.578 40.748Z" fill="#0F1923"/>
</svg>
